<?xml version="1.0" encoding="UTF-8"?>
<svg width="30px" height="30px" viewBox="0 0 30 30" version="1.1" xmlns="http://www.w3.org/2000/svg" xmlns:xlink="http://www.w3.org/1999/xlink" style="background: #FFFFFF;">
    <!-- Generator: Sketch 46.2 (44496) - http://www.bohemiancoding.com/sketch -->
    <title>Call button</title>
    <desc>Created with Sketch.</desc>
    <defs></defs>
    <g id="Symbols" stroke="none" stroke-width="1" fill="none" fill-rule="evenodd">
        <g id="Call-button">
            <rect id="Rectangle-4-Copy-3" fill="#F2F2F2" x="0" y="0" width="30" height="30"></rect>
            <g id="Call" transform="translate(9.000000, 9.000000)" fill="#40667E">
                <g id="Fill-128-+-Fill-129">
                    <path d="M11.2941176,7.76505882 L8.47058824,7.76505882 C8.08023529,7.76505882 7.76470588,8.08058824 7.76470588,8.47094118 L7.76470588,9.17682353 C4.94117647,9.17682353 2.86729412,7.01541176 2.82352941,4.23564706 L3.52941176,4.23564706 C3.91976471,4.23564706 4.23529412,3.92011765 4.23529412,3.52976471 L4.23529412,0.706235294 C4.23529412,0.315882353 3.91976471,0.000352941176 3.52941176,0.000352941176 L0.705882353,0.000352941176 C0.315529412,0.000352941176 0,0.315882353 0,0.706235294 L0,4.23564706 C0,8.52388235 3.47647059,12.0003529 7.76470588,12.0003529 L11.2941176,12.0003529 C11.6844706,12.0003529 12,11.6848235 12,11.2944706 L12,8.47094118 C12,8.08058824 11.6844706,7.76505882 11.2941176,7.76505882" id="Fill-129"></path>
                </g>
            </g>
        </g>
    </g>
</svg>