<svg id="Layer_1" data-name="Layer 1" xmlns="http://www.w3.org/2000/svg" viewBox="0 0 861.62 655.52"><defs><style>.cls-1{fill:#66d9e0;}.cls-2{fill:#0f3350;}</style></defs><title>CE100-midnightBlueAqua</title><rect class="cls-1" x="321.96" y="407.81" width="8.4" height="52.64"/><rect class="cls-1" x="321.91" y="504.2" width="8.4" height="52.64"/><rect class="cls-1" x="321.86" y="602.88" width="8.4" height="52.64"/><path class="cls-1" d="M262,649.15l-8.21-1.75,11-51.48,8.21,1.75Zm-65.41-20.42-7.67-3.42,21.43-48.07,7.67,3.42Zm-59.74-33.57-6.79-4.94,31-42.57,6.79,4.94ZM85.42,549.9l-5.62-6.24,39.14-35.2,5.62,6.24Zm-40.92-55-4.2-7.28,45.6-26.29,4.2,7.28ZM15.9,432.66l-2.59-8,50.07-16.24,2.59,8ZM.87,365.8,0,357.45,52.35,352l.87,8.35Zm51.55-63L.08,297.29,1,288.93l52.35,5.53ZM63.6,246.39,13.55,230.1l2.6-8L66.2,238.4Zm22.66-52.87L40.69,167.18l4.2-7.27,45.57,26.34Zm33.16-47-39.1-35.24L85.94,105,125,140.28Zm42.21-39.08-30.92-42.6,6.8-4.93,30.92,42.6ZM211,78l-21.38-48.1,7.67-3.41,21.38,48.1Zm54.46-18.54L254.57,8l8.21-1.74L273.71,57.7ZM331,52.64h-8.4l0-52.64H331Z"/><path class="cls-1" d="M282.59,552.63l-8.21-1.75,11-51.48,8.21,1.75Zm-45.8-14-7.67-3.42,21.44-48.08,7.67,3.42Zm-41.88-23.25-6.79-4.94,31-42.57,6.79,4.94Zm-36.13-31.45-5.62-6.24,39.13-35.2,5.62,6.24ZM130,445.64l-4.2-7.28,45.6-26.29,4.2,7.28Zm-20.21-43.42-2.59-8L157.25,378l2.59,8ZM99,355.54l-.87-8.35,52.35-5.47.87,8.35Zm51.54-42.36-52.35-5.53.88-8.35,52.35,5.53Zm6.88-36.25-50.05-16.29,2.6-8L160,268.94Zm14.26-34-45.57-26.34,4.2-7.27,45.57,26.34Zm21-30.32-39.1-35.24,5.62-6.24,39.1,35.24Zm26.87-25.29-30.92-42.6,6.8-4.93,30.92,42.6Zm31.53-19.15-21.38-48.1,7.67-3.41,21.38,48.1ZM286,156,275,104.49l8.21-1.74,10.92,51.49Zm45-4.66h-8.4l0-52.64H331Z"/><path class="cls-1" d="M302.67,458.36l-8.21-1.75,11-51.48,8.21,1.75ZM276,450.57l-7.67-3.42,21.43-48.08,7.67,3.42ZM251.6,437.41l-6.79-4.94,31-42.57,6.79,4.94Zm-21.16-18-5.62-6.24L264,378l5.62,6.24Zm-17-22-4.2-7.28,45.6-26.3,4.2,7.28Zm-12-25-2.59-8,50.07-16.24,2.59,8Zm-6.57-27-.87-8.35,52.35-5.47.87,8.35Zm51.53-22.21-52.34-5.53.88-8.35L247.29,315Zm2.68-16.54L199,290.47l2.6-8,50.05,16.3Zm6.06-15.63L209.57,264.8l4.2-7.27,45.57,26.34Zm9.17-14-39.1-35.24,5.62-6.24,39.1,35.24ZM276.2,265.3l-30.91-42.6,6.8-4.93L283,260.37Zm14.09-9.08L268.9,208.13l7.67-3.41L298,252.81Zm15.66-5.95L295,198.78l8.21-1.74,10.92,51.49Zm25-2.57h-8.4l0-52.63h8.4Z"/><rect class="cls-1" x="357.01" y="305.14" width="8.4" height="52.64"/><path class="cls-2" d="M393.67,331.74v-.29c0-29.22,22.35-52.14,52.72-52.14,20.49,0,33.66,8.59,42.55,20.77L468,316.27c-5.73-7-12.32-11.75-21.92-11.75-14,0-23.92,12-23.92,26.65v.29c0,15,9.88,26.79,23.92,26.79,10.46,0,16.62-4.87,22.64-12.18L489.65,361c-9.45,13-22.2,22.63-44.27,22.63C416.73,383.6,393.67,361.68,393.67,331.74Z"/><path class="cls-2" d="M501.68,281.32h80.65v23.49H529.19v15.33h48.13v21.92H529.19V358H583v23.64H501.68Z"/><path class="cls-2" d="M621.24,306.39l-16.9,4L599,288.91l29.37-8.31h20.2v101H621.24Z"/><path class="cls-2" d="M664.21,331.74v-.29c0-28.36,18.05-52.14,46.56-52.14S757,302.8,757,331.17v.29c0,28.37-17.91,52.15-46.56,52.15S664.21,360.11,664.21,331.74Zm64.9,0v-.29c0-16-7.45-27.65-18.62-27.65s-18.34,11.32-18.34,27.36v.29c0,16,7.45,27.51,18.62,27.51S729.11,347.64,729.11,331.74Z"/><path class="cls-2" d="M768.79,331.74v-.29c0-28.36,18.05-52.14,46.56-52.14s46.27,23.49,46.27,51.86v.29c0,28.37-17.91,52.15-46.56,52.15S768.79,360.11,768.79,331.74Zm64.9,0v-.29c0-16-7.45-27.65-18.62-27.65s-18.34,11.32-18.34,27.36v.29c0,16,7.45,27.51,18.62,27.51S833.69,347.64,833.69,331.74Z"/></svg>